<?xml version="1.0" encoding="UTF-8"?>
<svg version="1.1" viewBox="0 0 2048 1925" width="200" height="188" xmlns="http://www.w3.org/2000/svg">
<path transform="translate(411,235)" d="m0 0 6 2 3 2v2l9 3 6 1h35l15-5 26-2h43l100 1 220 1h754l8 1 1 37v531l-2 1-8-7-15-16-13-12-14-14-8-7-20-20-8-7-33-33-8-7-11-11-1-2-1-31-1-208v-52l-285-1h-396l-95-1h-94l-70 1-1 1-1 45v246l18-1h526v-48l1-58 1-30h3l11 11 11 9 116 116 8 7 26 26v2h2l7 8 160 160 2 1v2l3 1v2h2v2l4 2 1 3 3 1 7 8 23 23 7 8 9 9 7 8 8 8 2 5-1 1h-414l-7-1-1-4-1-39-1-98-1-1h-680l-4-1-1-2-1-11v-484l-1-27-1-2-11-2-5-4 1-6 10-10 5-9 2-21z" fill="#0F2163"/>
<path transform="translate(519,963)" d="m0 0 72 1h306l48 1 3 1 1 7 1 103v31h457l223 1 6 1 1 4 1 206v216l-1 99v45l-1 3-6 2-10 1-320 1h-883l-5-2-2-5-1-7-1-17v-453l1-55 1-31 2-2 10 9 10 10 8 7 13 12 13 13 5 4v2h2l3 3v2l4 2 14 15 53 53 4 7 1 175v114h869l72-1 1-59 1-233-34-1h-242l-113 1-98 2h-55l-1 5-1 32-1 88v14l-4-2-15-14-17-16-14-15-10-10v-2h-2l-7-8-95-95-8-7-7-7-8-7-41-41-2-4-4-2-42-42v-2h-2l-7-8-101-101-8-7-9-9-7-8-14-13-7-6z" fill="#0F2163"/>
<path transform="translate(454,1682)" d="m0 0h957l45 1 164 1v1l-320 1-786-1-60-2z" fill="#FEFEFE"/>
<path transform="translate(409,241)" d="m0 0 2 1-2 33-1 17-2-2-11-2-5-4 1-6 10-10 5-9 1-13z" fill="#FEFEFE"/>
<path transform="translate(1425,240)" d="m0 0h203l8 1-1 3-27-1-52-1-131-1z" fill="#FEFEFE"/>
<path transform="translate(411,1680)" d="m0 0 21 1v1l-11 1 1 1 17 1v1h-22l-5-2z" fill="#F0F1F5"/>
<path transform="translate(949,1376)" d="m0 0h1v14l-4-2-4-4 2-4 4-2z" fill="#B7BCCF"/>
<path transform="translate(533,1233)" d="m0 0 7 6 7 7 3 4-1 2-8-8-7-8z" fill="#FEFEFE"/>
</svg>
